<svg xmlns="http://www.w3.org/2000/svg" width="18" height="18" viewBox="0 0 18 18"><defs><linearGradient id="ai-grad" x1="9" y1="17" x2="9" y2="1" gradientUnits="userSpaceOnUse"><stop offset="0" stop-color="#0078D4"/><stop offset="0.4" stop-color="#2B88D8"/><stop offset="1" stop-color="#50E6FF"/></linearGradient></defs><path d="M9 1.5a7.5 7.5 0 1 0 0 15 7.5 7.5 0 0 0 0-15z" fill="url(#ai-grad)" opacity="0.15"/><circle cx="9" cy="6" r="1.5" fill="#0078D4"/><circle cx="5" cy="10" r="1.3" fill="#2B88D8"/><circle cx="13" cy="10" r="1.3" fill="#2B88D8"/><circle cx="9" cy="14" r="1.1" fill="#50E6FF"/><circle cx="4" cy="5.5" r="1" fill="#50E6FF"/><circle cx="14" cy="5.5" r="1" fill="#50E6FF"/><line x1="9" y1="6" x2="5" y2="10" stroke="#0078D4" stroke-width="0.7" opacity="0.8"/><line x1="9" y1="6" x2="13" y2="10" stroke="#0078D4" stroke-width="0.7" opacity="0.8"/><line x1="9" y1="6" x2="4" y2="5.5" stroke="#50E6FF" stroke-width="0.5" opacity="0.6"/><line x1="9" y1="6" x2="14" y2="5.5" stroke="#50E6FF" stroke-width="0.5" opacity="0.6"/><line x1="5" y1="10" x2="9" y2="14" stroke="#2B88D8" stroke-width="0.6" opacity="0.7"/><line x1="13" y1="10" x2="9" y2="14" stroke="#2B88D8" stroke-width="0.6" opacity="0.7"/><line x1="5" y1="10" x2="13" y2="10" stroke="#2B88D8" stroke-width="0.5" opacity="0.5"/></svg>
